<svg xmlns="http://www.w3.org/2000/svg" viewBox="0 0 795.58747 265.52979"><g id="Layer_2" data-name="Layer 2"><g id="Layer_2-2" data-name="Layer 2"><path d="M110.13791,144.81026v82.5h-21.5v-82.5Zm43,32.625v16.625h-54v-16.625Zm10-32.625v82.5h-21.5v-82.5Z" style="fill:#4d4e49"/><path d="M181.38644,227.31026v-82.5h64.25v16.625h-42.75v16.75h34v15.625h-34v16.875h44.375v16.625Z" style="fill:#4d4e49"/><path d="M299.636,144.81026q14.74806,0,22.9375,6.9375,8.18556,6.9375,8.1875,18.4375,0,12.62694-8.125,19.25-8.12694,6.62694-22.875,6.625l-2,1.125H281.386v30.125H260.261v-82.5Zm-3,37.125q6.249,0,9.375-2.5,3.12306-2.499,3.125-8,0-5.37306-3.125-7.875-3.126-2.499-9.375-2.5h-15.25v20.875Zm12.625,4.5,26.375,40.875h-23.75l-21.125-36.125Z" style="fill:#4d4e49"/><path d="M441.88547,144.81026v82.5H422.886v-37.875l.625-25.375h-.25l-20.375,63.25H385.511l-20.375-63.25h-.25l.625,25.375v37.875H346.386v-82.5h30.625l13,42,4.625,17.5h.25l4.75-17.375,12.875-42.125Z" style="fill:#4d4e49"/><path d="M497.13351,143.56026q12.498,0,21.5625,5.0625a34.11144,34.11144,0,0,1,13.9375,14.5625q4.875,9.501,4.875,22.875,0,13.37694-4.875,22.875a34.10066,34.10066,0,0,1-13.9375,14.5625q-9.06445,5.0625-21.5625,5.0625-12.501,0-21.625-5.0625a33.99345,33.99345,0,0,1-14-14.5625q-4.875-9.49806-4.875-22.875,0-13.374,4.875-22.875a34.00414,34.00414,0,0,1,14-14.5625Q484.63155,143.56026,497.13351,143.56026Zm0,16.875a17.2753,17.2753,0,0,0-10.125,2.875,17.53514,17.53514,0,0,0-6.25,8.5625,40.85738,40.85738,0,0,0-2.125,14.1875,40.95527,40.95527,0,0,0,2.125,14.125,17.5117,17.5117,0,0,0,6.25,8.625,17.26132,17.26132,0,0,0,10.125,2.875,16.97353,16.97353,0,0,0,10.0625-2.875,17.697,17.697,0,0,0,6.1875-8.625,41.002,41.002,0,0,0,2.125-14.125,40.9035,40.9035,0,0,0-2.125-14.1875,17.72112,17.72112,0,0,0-6.1875-8.5625A16.98718,16.98718,0,0,0,497.13351,160.43526Z" style="fill:#4d4e49"/><path d="M625.38351,203.68526a33.01561,33.01561,0,0,1-7.625,14.1875,31.26382,31.26382,0,0,1-12.5,8.125,47.77341,47.77341,0,0,1-16,2.5625q-12.501,0-21.625-5.0625a33.99345,33.99345,0,0,1-14-14.5625q-4.875-9.49806-4.875-22.875,0-13.374,4.875-22.875a34.00414,34.00414,0,0,1,14-14.5625q9.123-5.0625,21.5-5.0625a49.55112,49.55112,0,0,1,15.875,2.4375,31.0153,31.0153,0,0,1,12.25,7.4375,28.18308,28.18308,0,0,1,7.125,12.875l-18.875,7.625q-1.752-7.749-5.6875-10.625a16.41668,16.41668,0,0,0-9.9375-2.875,17.937,17.937,0,0,0-10.1875,2.875,18.12532,18.12532,0,0,0-6.625,8.5625,37.84129,37.84129,0,0,0-2.3125,14.1875,40.95527,40.95527,0,0,0,2.125,14.125,17.06865,17.06865,0,0,0,6.4375,8.625,18.8391,18.8391,0,0,0,10.6875,2.875,15.91057,15.91057,0,0,0,10.1875-3.3125q4.18653-3.31056,5.6875-10.1875Z" style="fill:#4d4e49"/><path d="M658.88351,144.81026v82.5h-21.5v-82.5Zm43,32.625v16.625h-54v-16.625Zm10-32.625v82.5h-21.5v-82.5Z" style="fill:#4d4e49"/><g id="Layer_1-2" data-name="Layer 1"><path d="M398.15621,1.212Q473.56193,76.63257,550.0928,153.1786c-.64566.05436-1.4374.17805-2.22929.17909-10.7129.0139-21.42752.10623-32.137-.08481a8.0933,8.0933,0,0,1-5.08337-2.12375q-54.99483-54.77231-109.827-109.70795c-3.48076-3.47954-2.74942-3.38468-6.23242.097q-54.89619,54.876-109.808,109.7365a6.21849,6.21849,0,0,1-3.67911,1.99167c-11.88234.15007-23.76733.08963-35.14623.08963Q321.87422,77.463,398.15621,1.212Z" style="fill:#4d4e49"/><path d="M0,153.37767c11.705-1.64083,23.43629-3.33307,35.18191-4.91943,13.59045-1.83558,27.199-3.537,40.78963-5.37164,15.52811-2.09624,31.04087-4.3061,46.56818-6.40853,13.49733-1.82763,26.99754-3.63995,40.51568-5.3031a11.014,11.014,0,0,0,6.82608-3.46522q62.4834-62.59953,125.04-125.12587A30.49641,30.49641,0,0,0,297.10109,0c1.14175.972,1.90106,1.53366,2.5621,2.19373,13.13622,13.11678,26.22539,26.281,39.42582,39.3328,2.03347,2.01064,2.01522,3.30964-.03333,5.24871-4.63433,4.38666-9.06969,8.98337-13.59195,13.48868-2.87546,2.86466-3.0538,2.86926-5.84034.08531q-9.482-9.47289-18.9515-18.95812c-3.54218-3.54506-2.80386-3.28634-6.01046-.08323q-54.81589,54.75806-109.538,109.60993a7.938,7.938,0,0,1-6.21909,2.478q-84.763-.06161-169.52607-.01818C6.23781,153.378,3.09731,153.37767,0,153.37767Z" style="fill:#4d4e49"/><path d="M498.01893.38234c.81917.77752,1.60364,1.48891,2.35161,2.23674Q562.29149,64.53122,624.151,126.50467a16.59984,16.59984,0,0,0,10.34644,5.2553c15.56422,1.86521,31.10187,3.95731,46.63837,6.04747,13.493,1.81527,26.965,3.78725,40.45721,5.60894,12.71792,1.71718,25.45485,3.29368,38.17464,4.99736,10.48791,1.40483,20.96207,2.91128,31.44472,4.356,1.45116.2,2.91556.3043,4.37514.6106q-3.71619,0-7.43246,0-85.50054-.01053-171.001.046a9.56315,9.56315,0,0,1-7.43915-3.13378Q555.33762,95.71814,500.8257,41.27793c-2.96329-2.96437-2.9643-2.96178-5.82961-.09071C488.54537,47.651,482.04346,54.065,475.67334,60.6073c-1.89487,1.94613-3.26485,2.25089-5.29014.11894-4.666-4.91165-9.51686-9.6493-14.34489-14.40458-1.42707-1.40558-1.84055-2.55-.20641-4.17589Q476.30261,21.7781,496.69,1.3266A10.64238,10.64238,0,0,1,498.01893.38234Z" style="fill:#4d4e49"/><path d="M382.76971,130.72887c2.944-.00014,5.89016.06768,8.83117-.02577,1.73515-.05515,2.53182.54681,2.519,2.34312q-.06442,8.97859-.00544,17.95788c.01224,1.81329-.85452,2.37692-2.54179,2.36453q-8.8314-.065-17.66359.0062c-1.71326.01432-2.48809-.57025-2.46742-2.39258q.10177-8.97807-.00382-17.9577c-.02343-1.87086.80571-2.36411,2.50058-2.31781C376.88017,130.78705,379.82571,130.729,382.76971,130.72887Z" style="fill:#4d4e49"/><path d="M412.69063,130.72974c2.94422,0,5.8898.05472,8.83207-.02124,1.6701-.04309,2.55169.39781,2.52822,2.29265q-.11129,8.97843-.00227,17.959c.02059,1.80228-.70355,2.42872-2.44135,2.41364-5.88793-.05116-11.777-.06142-17.66472.00468-1.92528.02156-2.59262-.78293-2.57347-2.64093.05969-5.78962.07654-11.58107-.0077-17.37007-.03009-2.06878.76907-2.76584,2.79266-2.67124C406.99389,130.829,409.84458,130.7297,412.69063,130.72974Z" style="fill:#4d4e49"/><path d="M382.62932,123.70816c-2.84925.00151-5.70045-.06289-8.547.02466-1.83029.05626-2.78136-.49728-2.633-2.50507.309-4.18205.01123-8.48717.92079-12.526,1.03833-4.61082,5.33348-7.35723,10.12354-7.50784,3.04281-.09565,6.09174.00676,9.135-.08075,1.74054-.05,2.50658.61078,2.49308,2.39215-.04539,5.99279-.03715,11.98626-.00763,17.97923.0081,1.65073-.7574,2.26374-2.34776,2.237C388.72143,123.67036,385.67505,123.70668,382.62932,123.70816Z" style="fill:#4d4e49"/><path d="M412.67541,123.70805c-2.947-.00072-5.89553-.05677-8.84053.02038-1.76888.04629-2.47062-.67288-2.45644-2.43142.04755-5.89362.0613-11.78838-.00576-17.6816-.02232-1.95945.83134-2.57314,2.675-2.50964,3.04188.10479,6.09211-.02117,9.133.09712a11.30805,11.30805,0,0,1,10.80466,10.48363c.169,3.233-.03258,6.4838.0617,9.72284.05508,1.89278-.86867,2.35251-2.531,2.317C418.57042,123.66363,415.62243,123.70877,412.67541,123.70805Z" style="fill:#4d4e49"/><path d="M113.032,146.91084v82.5h-21.5v-82.5Zm43,32.625v16.625h-54v-16.625Zm10-32.625v82.5h-21.5v-82.5Z" style="fill:#81827b"/><path d="M184.28049,229.41084v-82.5h64.25v16.625h-42.75v16.75h34v15.625h-34v16.875h44.375v16.625Z" style="fill:#81827b"/><path d="M302.53,146.91084q14.748,0,22.9375,6.9375,8.18555,6.9375,8.1875,18.4375,0,12.627-8.125,19.25-8.127,6.627-22.875,6.625l-2,1.125H284.28v30.125H263.155v-82.5Zm-3,37.125q6.249,0,9.375-2.5,3.123-2.499,3.125-8,0-5.373-3.125-7.875-3.126-2.499-9.375-2.5H284.28v20.875Zm12.625,4.5,26.375,40.875H314.78l-21.125-36.125Z" style="fill:#81827b"/><path d="M444.779,146.91084v82.5H425.77951v-37.875l.625-25.375h-.25l-20.375,63.25h-17.375l-20.375-63.25h-.25l.625,25.375v37.875h-19.125v-82.5h30.625l13,42,4.625,17.5h.25l4.75-17.375,12.875-42.125Z" style="fill:#81827b"/><path d="M500.028,145.66084q12.49806,0,21.5625,5.0625a34.1115,34.1115,0,0,1,13.9375,14.5625q4.875,9.501,4.875,22.875,0,13.377-4.875,22.875a34.1006,34.1006,0,0,1-13.9375,14.5625q-9.06444,5.0625-21.5625,5.0625-12.501,0-21.625-5.0625a33.9934,33.9934,0,0,1-14-14.5625q-4.875-9.498-4.875-22.875,0-13.374,4.875-22.875a34.00419,34.00419,0,0,1,14-14.5625Q487.5261,145.66084,500.028,145.66084Zm0,16.875a17.27537,17.27537,0,0,0-10.125,2.875,17.53523,17.53523,0,0,0-6.25,8.5625,40.8577,40.8577,0,0,0-2.125,14.1875,40.95543,40.95543,0,0,0,2.125,14.125,17.51161,17.51161,0,0,0,6.25,8.625,17.26125,17.26125,0,0,0,10.125,2.875,16.97346,16.97346,0,0,0,10.0625-2.875,17.69683,17.69683,0,0,0,6.1875-8.625,41.00191,41.00191,0,0,0,2.125-14.125,40.90358,40.90358,0,0,0-2.125-14.1875,17.72109,17.72109,0,0,0-6.1875-8.5625A16.98725,16.98725,0,0,0,500.028,162.53584Z" style="fill:#81827b"/><path d="M628.278,205.78584a33.01555,33.01555,0,0,1-7.625,14.1875,31.26354,31.26354,0,0,1-12.5,8.125,47.77337,47.77337,0,0,1-16,2.5625q-12.501,0-21.625-5.0625a33.9934,33.9934,0,0,1-14-14.5625q-4.875-9.498-4.875-22.875,0-13.374,4.875-22.875a34.00419,34.00419,0,0,1,14-14.5625q9.12306-5.0625,21.5-5.0625a49.55112,49.55112,0,0,1,15.875,2.4375,31.01535,31.01535,0,0,1,12.25,7.4375,28.183,28.183,0,0,1,7.125,12.875l-18.875,7.625q-1.75194-7.749-5.6875-10.625a16.41675,16.41675,0,0,0-9.9375-2.875,17.93714,17.93714,0,0,0-10.1875,2.875,18.12542,18.12542,0,0,0-6.625,8.5625,37.84156,37.84156,0,0,0-2.3125,14.1875,40.95543,40.95543,0,0,0,2.125,14.125,17.06857,17.06857,0,0,0,6.4375,8.625,18.839,18.839,0,0,0,10.6875,2.875,15.91049,15.91049,0,0,0,10.1875-3.3125q4.18653-3.31054,5.6875-10.1875Z" style="fill:#81827b"/><path d="M661.77707,146.91084v82.5h-21.5v-82.5Zm43,32.625v16.625h-54v-16.625Zm10-32.625v82.5h-21.5v-82.5Z" style="fill:#81827b"/><text/></g></g></g></svg>